<svg width="160" height="67" viewBox="0 0 160 67" fill="none" xmlns="http://www.w3.org/2000/svg">
<path d="M124.28 40.381L114.312 64.4709" stroke="black" stroke-width="4" stroke-linecap="round"/>
<path d="M103.513 40.381L114.312 64.4709" stroke="black" stroke-width="4" stroke-linecap="round"/>
<path d="M158 64.4709L148.032 40.381" stroke="black" stroke-width="4" stroke-linecap="round"/>
<path d="M137.233 64.4709L148.032 40.381" stroke="black" stroke-width="4" stroke-linecap="round"/>
<path d="M147.375 17.0509C147.865 17.0509 148.273 17.1326 148.6 17.2959C148.927 17.4593 149.183 17.7276 149.37 18.1009L155.74 31.4359C156.09 32.1359 156.183 32.6959 156.02 33.1159C155.857 33.5359 155.437 33.9093 154.76 34.2359C154.06 34.5859 153.5 34.7026 153.08 34.5859C152.66 34.4693 152.287 34.0376 151.96 33.2909L147.375 22.5459L142.86 33.0809C142.533 33.8509 142.16 34.3293 141.74 34.5159C141.32 34.7259 140.713 34.6326 139.92 34.2359C139.127 33.8393 138.707 33.3959 138.66 32.9059C138.613 32.4393 138.742 31.9026 139.045 31.2959L145.38 18.1009C145.567 17.7509 145.823 17.4943 146.15 17.3309C146.477 17.1443 146.885 17.0509 147.375 17.0509Z" fill="black"/>
<path d="M53.375 17.0509C53.865 17.0509 54.2733 17.1326 54.6 17.2959C54.9267 17.4593 55.1833 17.7276 55.37 18.1009L61.74 31.4359C62.09 32.1359 62.1833 32.6959 62.02 33.1159C61.8567 33.5359 61.4367 33.9093 60.76 34.2359C60.06 34.5859 59.5 34.7026 59.08 34.5859C58.66 34.4693 58.2867 34.0376 57.96 33.2909L53.375 22.5459L48.86 33.0809C48.5333 33.8509 48.16 34.3293 47.74 34.5159C47.32 34.7259 46.7133 34.6326 45.92 34.2359C45.1267 33.8393 44.7067 33.3959 44.66 32.9059C44.6133 32.4393 44.7417 31.9026 45.045 31.2959L51.38 18.1009C51.5667 17.7509 51.8233 17.4943 52.15 17.3309C52.4767 17.1443 52.885 17.0509 53.375 17.0509Z" fill="black"/>
<circle cx="22.5" cy="24.9709" r="4.5" stroke="black" stroke-width="4"/>
<path d="M6.76569 21.0995C10.5066 14.321 22.0929 4.30615 38.5104 18.4756" stroke="black" stroke-width="4"/>
<path d="M7.81482 57.8255C11.9564 63.4212 29.6683 67.4751 37.7196 57.8254" stroke="black" stroke-width="4" stroke-linecap="round"/>
<path d="M37.5732 16.8668L42.7037 11.6189" stroke="black" stroke-width="4" stroke-linecap="round"/>
<path d="M7.24238 19.4346L1.99999 15.9123" stroke="black" stroke-width="4" stroke-linecap="round"/>
<path d="M29.6882 12.603L33.5897 5.42722" stroke="black" stroke-width="4" stroke-linecap="round"/>
<path d="M13.6556 13.5868L9.80147 6.33969" stroke="black" stroke-width="4" stroke-linecap="round"/>
<path d="M21.9925 10.9629L21.9133 3.00002" stroke="black" stroke-width="4" stroke-linecap="round"/>
<path d="M8 31.4709C8 36.7209 14.4286 38.8827 23 38.8827C33.8295 38.8827 37 43.0004 38 45.4709" stroke="black" stroke-width="4" stroke-linecap="round"/>
<path d="M108 19.4709V32.4709" stroke="black" stroke-width="4" stroke-linecap="round"/>
<path d="M54 40.4709V63.4709" stroke="black" stroke-width="4" stroke-linecap="round"/>
<path d="M78.5925 40.381V63.6402" stroke="black" stroke-width="4" stroke-linecap="round"/>
<path d="M78.5925 63.6403H90.2222" stroke="black" stroke-width="4" stroke-linecap="round"/>
<path d="M68.85 34.6959C68.25 34.6959 67.8167 34.6043 67.55 34.4209C67.2833 34.2209 67.1167 33.9709 67.05 33.6709C67 33.3543 66.975 33.0293 66.975 32.6959V19.1459C66.975 18.8126 67 18.5043 67.05 18.2209C67.1167 17.9209 67.2833 17.6793 67.55 17.4959C67.8167 17.2959 68.2583 17.1959 68.875 17.1959H75.1C76.0833 17.1959 76.9583 17.4293 77.725 17.8959C78.4917 18.3626 79.1 18.9876 79.55 19.7709C80 20.5543 80.2167 21.4043 80.2 22.3209C80.2167 22.6876 80.1833 23.0459 80.1 23.3959C80.0167 23.7459 79.8917 24.0876 79.725 24.4209C79.575 24.7376 79.3833 25.0293 79.15 25.2959C79.5 25.6293 79.7917 26.0126 80.025 26.4459C80.2583 26.8626 80.4333 27.3043 80.55 27.7709C80.6833 28.2376 80.75 28.7126 80.75 29.1959C80.7333 29.9626 80.5833 30.6876 80.3 31.3709C80.0333 32.0376 79.65 32.6209 79.15 33.1209C78.65 33.6043 78.075 33.9876 77.425 34.2709C76.775 34.5543 76.0833 34.6959 75.35 34.6959H68.85ZM70.775 30.9209H75.1C75.3833 30.9209 75.6667 30.8709 75.95 30.7709C76.25 30.6543 76.4917 30.4543 76.675 30.1709C76.875 29.8709 76.975 29.4543 76.975 28.9209C76.975 28.5709 76.9333 28.2793 76.85 28.0459C76.7667 27.8126 76.65 27.6376 76.5 27.5209C76.35 27.3876 76.1833 27.2959 76 27.2459C75.8167 27.1959 75.625 27.1626 75.425 27.1459C75.225 27.1293 75.0333 27.1209 74.85 27.1209H74.125C73.5583 27.1209 73.1583 27.0043 72.925 26.7709C72.6917 26.5209 72.575 26.0959 72.575 25.4959C72.575 24.9126 72.7 24.5043 72.95 24.2709C73.2167 24.0376 73.6333 23.9209 74.2 23.9209H74.925C75.0917 23.9209 75.2667 23.9126 75.45 23.8959C75.6333 23.8793 75.7917 23.8293 75.925 23.7459C76.075 23.6626 76.1917 23.5293 76.275 23.3459C76.375 23.1459 76.425 22.8793 76.425 22.5459C76.425 21.9793 76.2833 21.5793 76 21.3459C75.7167 21.0959 75.2167 20.9709 74.5 20.9709H70.775V30.9209Z" fill="black"/>
<path d="M88.1 34.6959C87.5 34.6959 87.0667 34.6043 86.8 34.4209C86.5333 34.2376 86.3667 33.9959 86.3 33.6959C86.25 33.3959 86.225 33.0876 86.225 32.7709V19.0959C86.225 18.7793 86.25 18.4793 86.3 18.1959C86.3667 17.9126 86.5333 17.6793 86.8 17.4959C87.0667 17.3126 87.5083 17.2209 88.125 17.2209H93.325C94.0083 17.2209 94.7083 17.3459 95.425 17.5959C96.1417 17.8459 96.8 18.2293 97.4 18.7459C98 19.2626 98.4833 19.9043 98.85 20.6709C99.2167 21.4376 99.4 22.3459 99.4 23.3959C99.4 24.0959 99.2917 24.7709 99.075 25.4209C98.875 26.0709 98.5667 26.6709 98.15 27.2209C97.7333 27.7709 97.2167 28.2459 96.6 28.6459C95.9833 29.0293 95.275 29.3043 94.475 29.4709H90.025V32.7959C90.025 33.1126 89.9917 33.4209 89.925 33.7209C89.8583 34.0043 89.6917 34.2376 89.425 34.4209C89.1583 34.6043 88.7167 34.6959 88.1 34.6959ZM98.65 34.1959C98.0333 34.6459 97.5417 34.8209 97.175 34.7209C96.8083 34.6209 96.425 34.2959 96.025 33.7459L91.625 27.4459L95.9 26.8959L99.125 31.5209C99.4083 31.9209 99.5833 32.2626 99.65 32.5459C99.7333 32.8293 99.6917 33.0959 99.525 33.3459C99.375 33.5959 99.0833 33.8793 98.65 34.1959ZM90.025 25.7209H93.5C93.7333 25.7209 93.975 25.6793 94.225 25.5959C94.475 25.4959 94.7 25.3543 94.9 25.1709C95.1 24.9876 95.2667 24.7459 95.4 24.4459C95.5333 24.1459 95.6 23.7876 95.6 23.3709C95.6 22.8876 95.5 22.4709 95.3 22.1209C95.1167 21.7709 94.85 21.5043 94.5 21.3209C94.15 21.1209 93.7417 21.0209 93.275 21.0209H90.025V25.7209Z" fill="black"/>
<path d="M119.875 34.6959C119.292 34.6959 118.867 34.6043 118.6 34.4209C118.333 34.2376 118.167 34.0043 118.1 33.7209C118.033 33.4209 118 33.1043 118 32.7709V19.0459C118 18.7293 118.033 18.4376 118.1 18.1709C118.167 17.9043 118.333 17.6876 118.6 17.5209C118.883 17.3376 119.333 17.2459 119.95 17.2459C120.55 17.2459 120.967 17.3209 121.2 17.4709C121.433 17.6043 121.642 17.7959 121.825 18.0459L129.125 28.0709V19.0459C129.125 18.7293 129.158 18.4376 129.225 18.1709C129.308 17.9043 129.483 17.6876 129.75 17.5209C130.017 17.3376 130.45 17.2459 131.05 17.2459C131.667 17.2459 132.1 17.3376 132.35 17.5209C132.617 17.7043 132.775 17.9459 132.825 18.2459C132.892 18.5293 132.925 18.8293 132.925 19.1459V32.7959C132.925 33.1126 132.892 33.4209 132.825 33.7209C132.758 34.0043 132.592 34.2376 132.325 34.4209C132.058 34.6043 131.617 34.6959 131 34.6959C130.533 34.6959 130.167 34.6543 129.9 34.5709C129.65 34.4876 129.433 34.3293 129.25 34.0959L121.8 23.9959V32.7959C121.8 33.1126 121.767 33.4209 121.7 33.7209C121.633 34.0043 121.467 34.2376 121.2 34.4209C120.933 34.6043 120.492 34.6959 119.875 34.6959Z" fill="black"/>
</svg>
